<?xml version="1.0" encoding="UTF-8" standalone="no"?>
<svg
   xmlns:dc="http://purl.org/dc/elements/1.1/"
   xmlns:cc="http://creativecommons.org/ns#"
   xmlns:rdf="http://www.w3.org/1999/02/22-rdf-syntax-ns#"
   xmlns:svg="http://www.w3.org/2000/svg"
   xmlns="http://www.w3.org/2000/svg"
   xmlns:sodipodi="http://sodipodi.sourceforge.net/DTD/sodipodi-0.dtd"
   xmlns:inkscape="http://www.inkscape.org/namespaces/inkscape"
   height="512pt"
   viewBox="-66 0 512 512"
   width="512pt"
   version="1.1"
   id="svg6"
   sodipodi:docname="colchon.svg"
   inkscape:version="1.0.2 (e86c870879, 2021-01-15)">
  <metadata
     id="metadata12">
    <rdf:RDF>
      <cc:Work
         rdf:about="">
        <dc:format>image/svg+xml</dc:format>
        <dc:type
           rdf:resource="http://purl.org/dc/dcmitype/StillImage" />
      </cc:Work>
    </rdf:RDF>
  </metadata>
  <defs
     id="defs10" />
  <sodipodi:namedview
     pagecolor="#ffffff"
     bordercolor="#666666"
     borderopacity="1"
     objecttolerance="10"
     gridtolerance="10"
     guidetolerance="10"
     inkscape:pageopacity="0"
     inkscape:pageshadow="2"
     inkscape:window-width="753"
     inkscape:window-height="480"
     id="namedview8"
     showgrid="false"
     inkscape:zoom="0.80566406"
     inkscape:cx="341.33333"
     inkscape:cy="341.33333"
     inkscape:window-x="0"
     inkscape:window-y="27"
     inkscape:window-maximized="0"
     inkscape:current-layer="svg6" />
  <path
     d="m200 10c0 5.523438-4.476562 10-10 10s-10-4.476562-10-10 4.476562-10 10-10 10 4.476562 10 10zm0 0"
     id="path2" />
  <path
     d="m55 20h90c5.523438 0 10-4.476562 10-10s-4.476562-10-10-10h-90c-30.328125 0-55 24.671875-55 55v402c0 30.328125 24.671875 55 55 55 18.589844 0 35.039062-9.277344 45-23.4375 9.960938 14.160156 26.410156 23.4375 45 23.4375s35.039062-9.277344 45-23.4375c9.960938 14.160156 26.410156 23.4375 45 23.4375s35.039062-9.277344 45-23.4375c9.960938 14.160156 26.410156 23.4375 45 23.4375 30.328125 0 55-24.671875 55-55v-402c0-30.328125-24.671875-55-55-55h-90c-5.523438 0-10 4.476562-10 10s4.476562 10 10 10h90c19.300781 0 35 15.699219 35 35v45c0 27.570312-22.429688 50-50 50h-240c-27.570312 0-50-22.429688-50-50v-45c0-19.300781 15.699219-35 35-35zm90 472c-19.300781 0-35-15.699219-35-35v-287h70v287c0 19.300781-15.699219 35-35 35zm90 0c-19.300781 0-35-15.699219-35-35v-287h70v287c0 19.300781-15.699219 35-35 35zm125-343.078125v308.078125c0 19.300781-15.699219 35-35 35s-35-15.699219-35-35v-287h20c19.570312 0 37.285156-8.085938 50-21.078125zm-290 21.078125h20v287c0 19.300781-15.699219 35-35 35s-35-15.699219-35-35v-308.078125c12.714844 12.992187 30.429688 21.078125 50 21.078125zm0 0"
     id="path4"
     style="fill:#ffffff" />
</svg>
