<?xml version="1.0" encoding="UTF-8"?>
<svg version="1.1" viewBox="0 0 253 253" xmlns="http://www.w3.org/2000/svg">
 <rect width="253" height="253" fill="#fff"/>
 <path d="m11 11h11v11h-11zm11 0h11v11h-11zm11 0h11v11h-11zm11 0h11v11h-11zm11 0h11v11h-11zm11 0h11v11h-11zm11 0h11v11h-11zm33 0h11v11h-11zm33 0h11v11h-11zm22 0h11v11h-11zm11 0h11v11h-11zm11 0h11v11h-11zm11 0h11v11h-11zm11 0h11v11h-11zm11 0h11v11h-11zm11 0h11v11h-11zm-220 11h11v11h-11zm66 0h11v11h-11zm22 0h11v11h-11zm33 0h11v11h-11zm33 0h11v11h-11zm66 0h11v11h-11zm-220 11h11v11h-11zm22 0h11v11h-11zm11 0h11v11h-11zm11 0h11v11h-11zm22 0h11v11h-11zm33 0h11v11h-11zm55 0h11v11h-11zm22 0h11v11h-11zm11 0h11v11h-11zm11 0h11v11h-11zm22 0h11v11h-11zm-220 11h11v11h-11zm22 0h11v11h-11zm11 0h11v11h-11zm11 0h11v11h-11zm22 0h11v11h-11zm22 0h11v11h-11zm33 0h11v11h-11zm33 0h11v11h-11zm22 0h11v11h-11zm11 0h11v11h-11zm11 0h11v11h-11zm22 0h11v11h-11zm-220 11h11v11h-11zm22 0h11v11h-11zm11 0h11v11h-11zm11 0h11v11h-11zm22 0h11v11h-11zm44 0h11v11h-11zm11 0h11v11h-11zm11 0h11v11h-11zm22 0h11v11h-11zm22 0h11v11h-11zm11 0h11v11h-11zm11 0h11v11h-11zm22 0h11v11h-11zm-220 11h11v11h-11zm66 0h11v11h-11zm22 0h11v11h-11zm11 0h11v11h-11zm11 0h11v11h-11zm22 0h11v11h-11zm22 0h11v11h-11zm66 0h11v11h-11zm-220 11h11v11h-11zm11 0h11v11h-11zm11 0h11v11h-11zm11 0h11v11h-11zm11 0h11v11h-11zm11 0h11v11h-11zm11 0h11v11h-11zm22 0h11v11h-11zm22 0h11v11h-11zm22 0h11v11h-11zm22 0h11v11h-11zm11 0h11v11h-11zm11 0h11v11h-11zm11 0h11v11h-11zm11 0h11v11h-11zm11 0h11v11h-11zm11 0h11v11h-11zm-110 11h11v11h-11zm11 0h11v11h-11zm11 0h11v11h-11zm-132 11h11v11h-11zm11 0h11v11h-11zm11 0h11v11h-11zm11 0h11v11h-11zm11 0h11v11h-11zm22 0h11v11h-11zm11 0h11v11h-11zm11 0h11v11h-11zm11 0h11v11h-11zm33 0h11v11h-11zm11 0h11v11h-11zm22 0h11v11h-11zm22 0h11v11h-11zm22 0h11v11h-11zm-209 11h11v11h-11zm11 0h11v11h-11zm22 0h11v11h-11zm11 0h11v11h-11zm33 0h11v11h-11zm11 0h11v11h-11zm11 0h11v11h-11zm33 0h11v11h-11zm22 0h11v11h-11zm22 0h11v11h-11zm22 0h11v11h-11zm22 0h11v11h-11zm-154 11h11v11h-11zm22 0h11v11h-11zm11 0h11v11h-11zm22 0h11v11h-11zm22 0h11v11h-11zm44 0h11v11h-11zm11 0h11v11h-11zm11 0h11v11h-11zm-209 11h11v11h-11zm55 0h11v11h-11zm44 0h11v11h-11zm44 0h11v11h-11zm22 0h11v11h-11zm11 0h11v11h-11zm11 0h11v11h-11zm11 0h11v11h-11zm11 0h11v11h-11zm11 0h11v11h-11zm-220 11h11v11h-11zm11 0h11v11h-11zm22 0h11v11h-11zm33 0h11v11h-11zm11 0h11v11h-11zm11 0h11v11h-11zm22 0h11v11h-11zm11 0h11v11h-11zm33 0h11v11h-11zm22 0h11v11h-11zm44 0h11v11h-11zm-132 11h11v11h-11zm22 0h11v11h-11zm11 0h11v11h-11zm11 0h11v11h-11zm11 0h11v11h-11zm11 0h11v11h-11zm11 0h11v11h-11zm11 0h11v11h-11zm22 0h11v11h-11zm22 0h11v11h-11zm-220 11h11v11h-11zm11 0h11v11h-11zm11 0h11v11h-11zm11 0h11v11h-11zm11 0h11v11h-11zm11 0h11v11h-11zm11 0h11v11h-11zm22 0h11v11h-11zm22 0h11v11h-11zm22 0h11v11h-11zm11 0h11v11h-11zm11 0h11v11h-11zm33 0h11v11h-11zm22 0h11v11h-11zm-209 11h11v11h-11zm66 0h11v11h-11zm55 0h11v11h-11zm11 0h11v11h-11zm55 0h11v11h-11zm11 0h11v11h-11zm22 0h11v11h-11zm-220 11h11v11h-11zm22 0h11v11h-11zm11 0h11v11h-11zm11 0h11v11h-11zm22 0h11v11h-11zm22 0h11v11h-11zm44 0h11v11h-11zm33 0h11v11h-11zm22 0h11v11h-11zm33 0h11v11h-11zm-220 11h11v11h-11zm22 0h11v11h-11zm11 0h11v11h-11zm11 0h11v11h-11zm22 0h11v11h-11zm22 0h11v11h-11zm11 0h11v11h-11zm11 0h11v11h-11zm22 0h11v11h-11zm22 0h11v11h-11zm11 0h11v11h-11zm11 0h11v11h-11zm22 0h11v11h-11zm-198 11h11v11h-11zm22 0h11v11h-11zm11 0h11v11h-11zm11 0h11v11h-11zm22 0h11v11h-11zm22 0h11v11h-11zm22 0h11v11h-11zm11 0h11v11h-11zm33 0h11v11h-11zm33 0h11v11h-11zm-187 11h11v11h-11zm66 0h11v11h-11zm22 0h11v11h-11zm11 0h11v11h-11zm11 0h11v11h-11zm77 0h11v11h-11zm11 0h11v11h-11zm-198 11h11v11h-11zm11 0h11v11h-11zm11 0h11v11h-11zm11 0h11v11h-11zm11 0h11v11h-11zm11 0h11v11h-11zm11 0h11v11h-11zm22 0h11v11h-11zm11 0h11v11h-11zm22 0h11v11h-11zm44 0h11v11h-11zm44 0h11v11h-11z"/>
</svg>
