<?xml version="1.0" encoding="UTF-8" standalone="no"?>
<svg
   xmlns:dc="http://purl.org/dc/elements/1.1/"
   xmlns:cc="http://creativecommons.org/ns#"
   xmlns:rdf="http://www.w3.org/1999/02/22-rdf-syntax-ns#"
   xmlns:svg="http://www.w3.org/2000/svg"
   xmlns="http://www.w3.org/2000/svg"
   xmlns:sodipodi="http://sodipodi.sourceforge.net/DTD/sodipodi-0.dtd"
   xmlns:inkscape="http://www.inkscape.org/namespaces/inkscape"
   id="Layer_1"
   enable-background="new 0 0 512 512"
   height="512"
   viewBox="0 0 512 512"
   width="512"
   version="1.1"
   sodipodi:docname="sombrilla-de-playa.svg"
   inkscape:version="1.0.2 (e86c870879, 2021-01-15)">
  <metadata
     id="metadata885">
    <rdf:RDF>
      <cc:Work
         rdf:about="">
        <dc:format>image/svg+xml</dc:format>
        <dc:type
           rdf:resource="http://purl.org/dc/dcmitype/StillImage" />
      </cc:Work>
    </rdf:RDF>
  </metadata>
  <defs
     id="defs883" />
  <sodipodi:namedview
     pagecolor="#ffffff"
     bordercolor="#666666"
     borderopacity="1"
     objecttolerance="10"
     gridtolerance="10"
     guidetolerance="10"
     inkscape:pageopacity="0"
     inkscape:pageshadow="2"
     inkscape:window-width="1366"
     inkscape:window-height="704"
     id="namedview881"
     showgrid="false"
     inkscape:zoom="1.0019531"
     inkscape:cx="256"
     inkscape:cy="278.42158"
     inkscape:window-x="0"
     inkscape:window-y="27"
     inkscape:window-maximized="1"
     inkscape:current-layer="Layer_1" />
  <path
     d="m 495.64256,486.49036 c -39.994,0 -94.34,-8.219 -151.878,-16.921 -33.677,-5.093 -67.988,-10.28 -100.274,-13.887 l 8.305,-60.586 1.199,0.171 c 0.718,0.103 1.431,0.153 2.136,0.153 7.335,0 13.745,-5.389 14.812,-12.857 1.169,-8.185 -4.523,-15.768 -12.713,-16.937 l -1.368,-0.195 7.091,-51.732 87.377,10.082 c 0.051,0.006 0.103,0.004 0.154,0.009 0.063,0.007 0.123,0.021 0.186,0.027 0.468,0.043 0.934,0.064 1.396,0.064 0.083,0 0.164,-0.01 0.247,-0.012 0.316,-0.006 0.633,-0.013 0.948,-0.039 l 0.192,-0.016 c 0.017,-0.002 0.035,-0.003 0.052,-0.004 l 141.428,-11.478 c 7.123,-0.578 12.845,-6.102 13.669,-13.195 3.516,-30.267 0.092,-60.626 -10.177,-90.233 -9.685,-27.924 -24.979,-53.918 -45.46,-77.261 -39.747,-45.304008 -95.386,-75.577008 -153.351,-83.619008 l 3.583,-26.624 c 1.103,-8.194 -4.65,-15.7309994 -12.851,-16.8329994 -8.208,-1.103 -15.742,4.6469997 -16.844,12.8419994 l -3.656,27.165 c -59.064,-5.76 -122.154,10.754 -173.751997,45.628 -26.588,17.971008 -48.504,39.634008 -65.137,64.387008 -17.852999,26.568 -28.6899992,55.402 -32.2099992,85.7 -0.826,7.111 3.501,13.811 10.3259997,15.988 l 136.7569965,43.625 c 0.924,0.295 1.875,0.499 2.837,0.61 l 84.515,9.752 -6.981,50.934 -0.483,-0.069 c -8.186,-1.173 -15.779,4.519 -16.948,12.704 -1.169,8.185 4.523,15.768 12.713,16.937 l 0.652,0.093 -8.489,61.934 c -14.897,-1.183 -29.127,-1.875 -42.374,-1.875 -94.128997,0 -157.860997,12.692 -160.528996,13.232 -8.1090001,1.643 -13.3490002,9.544 -11.70600016,17.647 1.644,8.103 9.54599966,13.34 17.65899916,11.699 0.623,-0.127 63.425,-12.635 154.574997,-12.635 54.191,0.45 111.329,9.974 168.01,18.309 58.684,8.875 114.114,17.258 156.362,17.258 8.274,0 14.981,-6.703 14.981,-14.971 0,-8.268 -6.708,-14.971 -14.981,-14.971 z M 279.50556,81.145352 c 48.622,67.345008 58.644,146.092008 58.321,211.052008 l -170.151,-19.633 c 13.56,-65.235 42.439,-140.79 111.83,-191.419008 z m 150.931,70.239008 c 34.146,38.92 51.427,85.414 49.375,132.136 l -112.002,9.09 c 3.275,-61.747 -17.199,-160.291 -51.812,-211.005008 43.394,10.591 84.116,35.218008 114.439,69.779008 z m -317.558,-36.38 c 38.393,-25.949008 83.812,-40.483008 128.201,-41.561008 -58.865,50.375008 -92.384,135.660008 -102.696,192.653008 l -107.986997,-34.448 c 8.915,-45.407 37.837,-86.468 82.481997,-116.644 z"
     id="path878"
     style="fill:#ffffff" />
</svg>
