<?xml version="1.0" encoding="UTF-8" standalone="no"?>
<svg
   xmlns:dc="http://purl.org/dc/elements/1.1/"
   xmlns:cc="http://creativecommons.org/ns#"
   xmlns:rdf="http://www.w3.org/1999/02/22-rdf-syntax-ns#"
   xmlns:svg="http://www.w3.org/2000/svg"
   xmlns="http://www.w3.org/2000/svg"
   xmlns:sodipodi="http://sodipodi.sourceforge.net/DTD/sodipodi-0.dtd"
   xmlns:inkscape="http://www.inkscape.org/namespaces/inkscape"
   height="512pt"
   viewBox="0 -53 512 512"
   width="512pt"
   version="1.1"
   id="svg6"
   sodipodi:docname="puf.svg"
   inkscape:version="1.0.2 (e86c870879, 2021-01-15)">
  <metadata
     id="metadata12">
    <rdf:RDF>
      <cc:Work
         rdf:about="">
        <dc:format>image/svg+xml</dc:format>
        <dc:type
           rdf:resource="http://purl.org/dc/dcmitype/StillImage" />
      </cc:Work>
    </rdf:RDF>
  </metadata>
  <defs
     id="defs10" />
  <sodipodi:namedview
     pagecolor="#ffffff"
     bordercolor="#666666"
     borderopacity="1"
     objecttolerance="10"
     gridtolerance="10"
     guidetolerance="10"
     inkscape:pageopacity="0"
     inkscape:pageshadow="2"
     inkscape:window-width="753"
     inkscape:window-height="480"
     id="namedview8"
     showgrid="false"
     inkscape:zoom="0.80566406"
     inkscape:cx="341.33333"
     inkscape:cy="341.33333"
     inkscape:window-x="0"
     inkscape:window-y="27"
     inkscape:window-maximized="0"
     inkscape:current-layer="svg6" />
  <path
     d="m511.996094 186.316406c-.109375-23.101562-12.003906-44.054687-31.8125-56.042968-18.25-11.046876-40.109375-12.652344-59.535156-4.632813l-25.34375-49.523437c-11.734376-22.925782-29.546876-42.144532-51.515626-55.578126-21.972656-13.4375-47.195312-20.539062-72.949218-20.539062h-29.761719c-25.75 0-50.976563 7.101562-72.945313 20.539062-21.96875 13.433594-39.78125 32.65625-51.515624 55.578126l-25.332032 49.496093c-19.40625-7.988281-41.238281-6.375-59.46875 4.660157-19.8125 11.988281-31.703125 32.941406-31.81249975 56.054687l-.00390625.839844c0 58.652343 22.839844 113.796875 64.316406 155.273437 41.472656 41.472656 96.617188 64.3125 155.269532 64.3125h72.828124c58.652344 0 113.796876-22.839844 155.269532-64.3125 41.476562-41.476562 64.316406-96.621094 64.316406-155.273437zm-368.671875-96.53125c18.871093-36.878906 56.328125-59.785156 97.753906-59.785156h29.761719c41.425781 0 78.886718 22.90625 97.757812 59.785156l25.289063 49.414063-25.773438 13.339843c-.03125.015626-.0625.03125-.09375.050782l-1.996093 1.050781c-8.257813 4.347656-16.710938 8.160156-25.300782 11.464844-27.199218-9.8125-55.707031-14.886719-84.609375-14.902344-.035156 0-.074219 0-.113281 0-28.941406 0-57.492188 5.074219-84.722656 14.898437-8.59375-3.304687-17.042969-7.113281-25.296875-11.460937l-2-1.050781c-.03125-.019532-.0625-.035156-.09375-.054688l-25.835938-13.367187zm149.128906 286.96875h-72.867187c-104.539063 0-189.585938-85.046875-189.585938-189.585937l.003906-.710938c.058594-12.570312 6.542969-23.980469 17.347656-30.519531 10.917969-6.609375 24.191407-7.058594 35.503907-1.203125l47.199219 24.425781 1.945312 1.023438c.90625.476562 1.820312.945312 2.730469 1.414062-9.109375 4.984375-18.003907 10.535156-26.640625 16.660156l-.183594.128907c-6.765625 4.773437-8.378906 14.136719-3.601562 20.902343 2.921874 4.140626 7.558593 6.351563 12.265624 6.351563 2.992188 0 6.011719-.890625 8.640626-2.746094l.207031-.148437c6.164062-4.371094 12.445312-8.402344 18.820312-12.105469 70.566407-40.980469 152.972657-40.976563 223.53125 0 6.433594 3.738281 12.765625 7.8125 18.984375 12.226563 6.757813 4.800781 16.121094 3.214843 20.917969-3.539063s3.210937-16.117187-3.542969-20.917969c-8.703125-6.183594-17.675781-11.785156-26.863281-16.8125.914063-.46875 1.828125-.933594 2.734375-1.414062l39.925781-20.675782c.328125-.140624.664063-.265624.984375-.429687.457032-.234375.898438-.488281 1.320313-.761719l6.914062-3.582031c11.316407-5.855469 24.585938-5.40625 35.503907 1.203125 10.804687 6.539062 17.292968 17.949219 17.351562 30.503906l.003906.730469c-.003906 104.535156-85.050781 189.582031-189.550781 189.582031zm0 0"
     id="path2"
     style="fill:#ffffff" />
  <path
     d="m235.765625 128.492188h40.46875c8.285156 0 15-6.714844 15-15 0-8.285157-6.714844-15-15-15h-40.46875c-8.28125 0-15 6.714843-15 15 0 8.285156 6.714844 15 15 15zm0 0"
     id="path4"
     style="fill:#ffffff" />
</svg>
